<svg xmlns:svg="http://www.w3.org/2000/svg" xmlns="http://www.w3.org/2000/svg" width="95" height="33" version="1.1"><style>.s0{fill:#d44a30;}.s1{fill:#338f76;}</style><style>.style0{fill:	#d44a30;}.style1{fill:	#338f76;}.style2{fill:	#eb9953;}.style3{fill:	#9c9d8c;}.style4{fill:	#5ca379;}.style5{fill:	#6f716e;}</style><title>extJWNL logo</title><g transform="matrix(0.88785047,0,0,0.88785047,0,0.01139078)"><path d="M7.7 28.2Q4 28.2 2 26.1q-2-2-2-5.8 0-3.8 2-6 2-2.2 5.1-2.2 1.4 0 2.5 0.4 1.1 0.4 1.9 1.3 0.8 0.9 1.3 2.2 0.4 1.3 0.4 3.1l0 1.4-10.6 0q0 2.7 1.3 4.1 1.3 1.4 3.7 1.4 0.9 0 1.7-0.2 0.8-0.2 1.5-0.5 0.7-0.3 1.2-0.6 0.5-0.3 0.8-0.6l0.2 0 0 2.8q-0.5 0.2-1.1 0.5-0.7 0.3-1.2 0.4-0.8 0.2-1.4 0.3-0.6 0.1-1.5 0.1zm3-9.7q0-1.1-0.2-1.8Q10.3 15.9 9.9 15.4 9.4 14.8 8.7 14.5 8 14.2 7 14.2 6 14.2 5.2 14.5 4.5 14.8 3.9 15.4 3.3 16 3 16.7 2.7 17.4 2.6 18.4l8.1 0zM27.8 27.9l-3.2 0-3.7-5.8-3.8 5.8-2.9 0 5.3-7.6-5.3-7.8 3.2 0 3.7 5.8 3.8-5.8 2.9 0-5.3 7.6 5.3 7.8zM34.5 28.2Q32.4 28.2 31.2 27 30 25.8 30 23.2l0-8.5-1.7 0 0-2.1 1.7 0 0-4.4 2.6 0 0 4.4 4.8 0 0 2.1-4.8 0 0 7.3q0 1.2 0 1.8 0 0.6 0.3 1.2 0.2 0.5 0.8 0.7 0.5 0.2 1.4 0.2 0.6 0 1.2-0.2 0.6-0.2 0.9-0.3l0.2 0 0 2.3q-0.7 0.2-1.5 0.3-0.7 0.1-1.4 0.1z" class="style0" fill="#d44a30"/><path d="m47.2 22.6q0 2.7-1.6 4.2-1.6 1.5-4.4 1.5-0.7 0-1.8-0.1-1.1-0.1-1.8-0.3l0-2.6 0.2 0q0.6 0.2 1.4 0.4 0.8 0.2 1.7 0.2 1.3 0 2-0.3 0.8-0.3 1.1-0.8 0.4-0.6 0.5-1.3 0.1-0.8 0.1-1.8l0-12-4.3 0 0-2.2 7 0 0 15.2zM107 27.9l-11.9 0 0-20.5 2.7 0 0 18.1 9.1 0 0 2.4z" class="style1" fill="#338f76"/><path d="M59.6 36.7C59.2 36.5 58.7 36.1 58.4 35.8 58 35.3 58 35.1 58.7 34.2c0.4-0.6 0.8-1.4 0.8-1.7 0-0.7-2.4-8.7-4.9-16.2C54 14.6 52.9 11.1 52.1 8.5 50.7 4.1 50.6 3.8 49.4 3.4 47.7 2.7 47.5 1.9 48.7 0.8c1.7-1.4 5.5-0.9 5.8 0.9 0.1 0.5-0.2 0.9-0.8 1.3-0.5 0.3-0.9 0.9-0.9 1.2 0 0.4 2.4 8 5.6 18.1 0.9 2.9 1.1 1.7 1-5.9-0.1-4.9-0.2-6.7-0.5-6.8-1.2-0.4-2-1.4-1.7-2.1 0.5-1.6 4.7-1.9 6-0.4 0.7 0.8 0.3 1.9-0.9 2.3-0.4 0.1-0.7 0.4-0.7 0.6 0 0.7 3.9 4.9 4.2 4.6 0.2-0.2 0.9-2.4 1.7-5L68.9 4.8 67.8 3.9C66 2.4 67.1 0.8 69.9 0.8c2.9 0 4 1.6 2.1 3.1l-1.1 0.9 3.2 8.8c3.9 10.7 4.9 13.6 5.1 13.6 0.1 0 0.1-3.7 0.1-8.2l0-8.2-1-0.2C75.9 9.8 75.2 8.2 77.1 7.2c1.4-0.7 4-0.5 5 0.5 0.7 0.7 0.7 0.7 0 1.7-0.6 0.9-0.7 1.8-0.8 7.6-0.1 3.7 0 6.8 0.2 7 0.2 0.2 1.3-3.6 2.9-9.6C85.8 9 86.9 4.5 86.8 4.3 86.7 4.2 86.2 4 85.8 3.7 84.4 3 84.2 2.2 85.1 1.3c1.5-1.5 6-0.8 6.1 0.9 0 0.2-0.5 0.8-1.1 1.3-1 0.9-1.3 1.6-4.7 14.8-2 7.7-3.7 14.2-3.7 14.4 0 0.3 0.5 0.8 1 1.1 1.3 0.7 1.3 1.4 0.1 2.4-1.7 1.3-5.7 0.4-5.7-1.3 0-0.3 0.5-0.8 1.1-1.1 0.6-0.3 1.1-0.7 1.1-0.9 0-0.3-11-12.7-12.1-13.6-0.5-0.4-0.6-0.4-0.7 0.2-0.1 0.3-1 3.3-2 6.5-1 3.2-1.8 6.2-1.8 6.5 0 0.4 0.5 0.9 1.1 1.3 0.6 0.4 1.1 0.9 1.1 1.3 0 1.4-3.1 2.3-5.1 1.5zm3.2-11.5c2.6-8.7 2.4-7.9 1.7-8.8-1.4-1.7-2.7-3.1-3-3.1-0.2 0-0.3 3.5-0.3 7.8 0 4.8 0.1 7.7 0.3 7.5 0.2-0.2 0.7-1.8 1.3-3.5zM74 18.3c-1.8-5.1-3.4-9.5-3.5-9.8-0.3-0.9-0.8 0.1-2 4.2l-1.2 4 1.1 1.2c4.2 4.8 8.8 9.9 8.9 9.8 0.1-0.1-1.4-4.3-3.2-9.4z" class="style2" fill="#eb9953"/><path d="m59.6 36.7c-1.2-0.5-1.7-1.3-1.2-2.1 0.2-0.4 0.6-0.7 0.9-0.7 0.7 0 0.7-2.7 0-3.5C59.1 30.1 58.6 29 58.3 28 58 27.1 56.5 22.3 54.9 17.5 53.4 12.6 51.8 7.6 51.4 6.3 50.7 4.2 50.5 3.8 49.4 3.4 47.7 2.7 47.5 1.9 48.7 0.8c1.7-1.4 5.5-0.9 5.8 0.8 0.1 0.5-0.2 1-0.8 1.4-0.5 0.3-0.9 0.8-0.9 1.1 0 0.5 3.3 11.2 5.9 18.9l0.9 2.8 0.1-7.4c0.1-7.8 0-9-0.8-9-0.3 0-0.8-0.3-1.3-0.6-1.1-0.9-0.7-2.1 1-2.6 3.5-1.1 6.5 1.5 3.5 3-0.5 0.3-1.1 0.4-1.2 0.3-0.1-0.1-0.2 0-0.2 0.2 0 0.4 3.9 5.1 4.5 5.5 0.2 0.1 1-2.2 1.9-5.2L68.7 4.6 67.6 3.7c-1.8-1.5-0.7-3.1 2.1-3.1 2.9 0 4 1.6 2.1 3.1l-1.1 0.9 1.8 4.9c1 2.7 2.7 7.6 3.9 10.8 1.2 3.2 2.3 6.4 2.6 7.1 0.4 1.1 0.5 0.2 0.5-7.8l0-9-1.2-0.2C76 9.9 75.2 8.2 77.1 7.2 78.5 6.5 81 6.7 82 7.6c0.9 0.8 0.9 1-0.1 2-0.8 0.8-0.8 1-0.9 8.9-0.1 5.9 0 7.9 0.3 7.2C81.7 24.8 86.9 5.1 86.9 4.5 86.9 4.3 86.5 4 86 3.7 84.5 2.9 84.2 2.1 85.1 1.2c1.5-1.5 6-0.8 6.1 0.9 0 0.2-0.5 0.8-1.1 1.3-1 0.8-1.3 1.6-4.6 14.3-1.9 7.4-3.6 13.7-3.8 14-0.6 1-0.4 1.5 0.7 1.9 1.5 0.6 1.7 1.5 0.5 2.5-0.8 0.7-1.3 0.8-2.7 0.7-1.7-0.2-3.1-1-3.1-1.9 0-0.6 2.1-1.9 2.6-1.6 1 0.6-1.1-2-5.8-7.2-6.8-7.6-7.2-8-7.2-7.4 0 0.3-0.9 3.3-2 6.9-1.1 3.5-2 6.7-2 7.1 0 0.4 0.5 0.9 1.1 1.3 0.6 0.4 1.1 0.9 1.1 1.3 0 1.4-3.1 2.3-5.1 1.5zm4.1-14.5c0.6-2 1.3-4.1 1.4-4.5 0.3-0.7 0.1-1.1-1.6-3.1-1.1-1.2-2.1-2.2-2.3-2.1-0.2 0.1-0.3 4.3-0.3 9.3l0 9.1 0.8-2.5C62.2 27 63 24.3 63.6 22.2Zm10.6-3.1c-2-5.5-3.7-10.3-3.8-10.6-0.3-0.9-0.8 0.1-1.9 3.9-0.6 2-1.3 3.9-1.5 4.1-0.3 0.3 0 0.8 1 1.9 3 3.4 9.8 10.8 9.8 10.8 0 0-1.6-4.6-3.6-10.1z" class="style3" fill="#9c9d8c"/><path d="m59.5 35.5c-0.3-0.3-0.3-0.6 0-0.7C60 34.5 60 31.3 59.4 29.8 59 29.1 57 22.8 54.7 15.8 51.6 6 50.5 2.9 49.9 2.4 48.8 1.6 49.5 1 51.3 0.9c2 0 2.7 0.7 1.5 1.6l-0.9 0.6 3.1 9.6c1.7 5.3 3.3 10.4 3.6 11.3 0.3 0.9 0.7 1.7 0.8 1.7 0.3 0 0.4-14.2 0.1-15.9 0-0.6-0.4-1.1-0.8-1.2-1-0.3-0.8-1.1 0.4-1.5 1.1-0.4 2.3-0.2 3.1 0.4 0.4 0.3 0.3 0.5-0.5 1.1-0.6 0.6-0.8 1-0.7 1.5 0.3 0.8 4.6 5.7 4.9 5.4C66.2 15.3 69.3 4.8 69.3 4.1 69.3 3.9 69 3.4 68.5 3.1 67.4 2.3 68.1 1.7 70 1.7c2 0 2.6 0.6 1.4 1.5-1 0.8-1.1 0.6 2.1 9.4 3.3 9.2 4.6 12.5 5.2 14.3 0.3 0.9 0.7 1.7 0.8 1.9 0.2 0.2 0.3-3.9 0.3-9.4 0-9.6 0-9.8-0.7-9.8-0.9 0-2.1-0.6-2.1-1 0-0.5 1.9-1 3-0.7l1.1 0.2-0.1 9.2c-0.1 5.6 0 9.3 0.2 9.4 0.2 0.1 0.8-1.5 1.3-3.6 0.5-2.1 1.8-7 2.9-11 2-7.6 2.2-8.8 1.4-8.8C86 3.3 85.5 2.4 86 2c0.6-0.6 2.8-0.5 3.6 0.1 0.6 0.5 0.6 0.5-0.1 0.9-0.4 0.2-0.8 0.7-0.8 1 0 0.3-1.6 6.6-3.6 14-2 7.4-3.6 14-3.7 14.8-0.1 1.1 0 1.5 0.7 2 0.7 0.6 0.8 0.7 0.3 1-0.7 0.5-3.3 0.4-3.8-0.1-0.3-0.3-0.2-0.6 0.5-1.2l1-0.8-0.7-1c-1.2-1.8-12.6-14.3-12.9-14-0.1 0.1-1.2 3.6-2.4 7.7l-2.2 7.4 1 0.8c0.8 0.7 0.9 0.9 0.5 1.2-0.8 0.5-3.4 0.4-3.8-0.1zm4-11.6 2-6.9-2-2.3c-1.1-1.3-2.2-2.2-2.3-2.1-0.2 0.1-0.3 4.3-0.3 9.4 0 5 0.1 9.1 0.3 9 0.2-0.1 1.2-3.3 2.3-7zM74.8 19.4C70.4 7.2 70.5 7.6 70.2 7.6c-0.3 0-3.4 9-3.2 9.4 0.2 0.6 11 12.3 11.1 12 0.1-0.2-1.4-4.5-3.3-9.6z" class="style4" fill="#5ca379"/><path d="m59.5 35.5c-0.3-0.4-0.3-0.6 0-0.7 0.5-0.4 0.4-3-0.2-5.2C59.1 28.5 57.2 22.4 55.1 16 53.1 9.6 51.4 4.1 51.4 3.8 51.4 3.5 50.9 3 50.3 2.7c-0.6-0.4-1-0.8-0.9-1 0.1-0.6 2-1 2.9-0.8 1.3 0.3 1.4 0.9 0.4 1.7l-0.9 0.8 1.9 5.8c1 3.2 2.6 8.2 3.6 11.2 1.1 3.4 1.9 5.4 2.2 5.4 0.4 0 0.5-1.5 0.5-7.4 0-8.2-0.2-9.6-1.1-9.8-1-0.3-0.8-1 0.4-1.4 1.1-0.4 2.3-0.2 3.1 0.4 0.4 0.3 0.3 0.5-0.5 1.1-0.8 0.6-0.9 0.9-0.6 1.5 0.5 1.1 4.4 5.4 4.9 5.4 0.3 0 1.1-2.3 2.1-5.7l1.5-5.8-1-0.8C67.5 2.3 68 1.7 70 1.7c2.1 0 2.5 0.6 1.2 1.7l-1 0.8 2.9 8.1c1.6 4.4 3.6 10 4.4 12.3 0.8 2.3 1.7 4.3 1.9 4.3 0.3 0.1 0.4-2.7 0.4-9.6 0-9.6 0-9.7-0.7-9.7-0.9 0-2.1-0.6-2.1-1 0-0.5 1.9-1 3-0.7l1 0.2 0 9.3c0 6.1 0.1 9.4 0.4 9.4 0.3 0.1 6.2-21.5 6.2-22.7 0-0.2 0.1-0.4 0.3-0.4 0.5 0 0.4 0.7-0.7 5-4.1 15.3-5.6 21.6-5.9 23.4-0.2 1.9-0.2 2.1 0.6 2.7 0.7 0.6 0.8 0.7 0.3 1-0.7 0.5-3.3 0.4-3.8-0.1-0.3-0.3-0.2-0.6 0.5-1.2l1-0.8-0.7-1c-0.4-0.6-3.4-4-6.6-7.6-4.7-5.3-6.1-6.5-6.4-6.2-0.2 0.2-1.4 3.6-2.6 7.5l-2.2 7.1 1.1 1c1 0.8 1.1 1 0.6 1.3-0.8 0.5-3.4 0.4-3.8-0.2zm2.7-6c2.1-6.9 3.3-11 3.3-11.7 0-1-3.7-5.5-4.3-5.2-0.5 0.3-0.4 18.6 0.1 18.4 0.2-0.1 0.6-0.8 0.9-1.5zM74.5 17.9c-3-8.2-4-10.8-4.4-10.8-0.6 0.1-3.3 8.4-3.2 9.5 0.2 0.9 10.9 12.7 11.3 12.4 0.1-0.1-1.5-5.2-3.7-11.1zM86.9 3.2c-0.3 0-0.7-0.3-1-0.5-1.3-1 2.3-1.8 3.6-0.8 0.7 0.5 0.7 0.5-0.1 0.9-1 0.6-1.7 0.7-2.5 0.4z" class="style5" fill="#6f716e"/><path d="m60 33.7c-0.1-0.3-0.2-5.9-0.3-12.5-0.1-10.9 0-12 0.5-12 0.3 0 0.7 0.4 0.8 0.8 0.1 0.4 1.5 2.2 3.1 4 1.6 1.8 5.7 6.3 9 10 3.4 3.8 6.2 6.6 6.4 6.5C79.7 30.3 79.8 25.6 79.9 20 80 11.3 80.1 9.8 80.5 9.7 81 9.6 81 11.1 81 21.6c0 11.1 0 12-0.6 12-0.3 0-0.8-0.3-1-0.7-0.2-0.4-3.4-4.1-7.1-8.2-3.7-4.1-7.7-8.5-8.8-9.8-1.1-1.3-2.2-2.3-2.4-2.2-0.2 0.1-0.3 4.9-0.3 10.7 0 6.7-0.1 10.6-0.4 10.8-0.2 0.1-0.4 0-0.6-0.3zM61.4 32c0.1-0.4 0.9-3.1 1.8-5.9 0.9-2.8 1.8-5.8 2-6.6 0.2-0.8 0.5-1.4 0.7-1.2 0.3 0.3-3.9 14.6-4.4 14.6-0.2 0-0.2-0.4-0.1-0.8zm17.4-2.6c-0.1-0.2-2-5.3-4.2-11.3-3.1-8.4-4.1-11-4.5-11-0.4 0.1-1 1.5-1.8 4.2-1.2 3.8-1.8 5.3-1.8 4.2 0-0.7 3.3-11.6 3.5-11.6 0.1 0 1.5 3.7 3.1 8.2 1.6 4.5 3.6 10.2 4.5 12.6 0.9 2.4 1.5 4.5 1.5 4.7-0.1 0.2-0.2 0.2-0.3 0zM81.3 29c0-0.1 1.4-5.7 3.2-12.3C86.2 10 87.7 4.3 87.7 4c0-0.3 0.2-0.5 0.4-0.5 0.5 0 0.4 0.7-0.7 4.8-0.6 2.1-2 7.6-3.2 12.3-1.2 4.7-2.3 8.6-2.5 8.6-0.2 0-0.3-0.1-0.3-0.2zM55.1 16.1C53.1 9.6 51.4 4 51.4 3.7c0-1.1 0.5-0.1 1.4 2.7 0.4 1.5 2 6.5 3.6 11.3 3 9.5 3.2 10.2 2.8 10.2-0.1 0-1.9-5.3-4-11.8z" class="style0" fill="#d44a30"/><path d="m61.3 32c0.1-0.4 0.9-3.1 1.8-5.9 0.9-2.8 1.8-5.8 2-6.6 0.2-0.8 0.5-1.4 0.7-1.2 0.3 0.3-3.9 14.6-4.4 14.6-0.2 0-0.2-0.4-0.1-0.8zm17.5-2.6c-0.1-0.2-2-5.3-4.2-11.3-3.1-8.4-4.1-11-4.5-11-0.4 0.1-1 1.5-1.8 4.2-1.2 3.8-1.8 5.3-1.8 4.2 0-0.7 3.3-11.6 3.5-11.6 0.1 0 1.5 3.7 3.1 8.2 1.6 4.5 3.6 10.2 4.5 12.6 0.9 2.4 1.5 4.5 1.5 4.7-0.1 0.2-0.2 0.2-0.3 0zM81.3 29c0-0.1 1.4-5.7 3.2-12.3C86.2 10 87.7 4.3 87.7 4c0-0.3 0.2-0.5 0.4-0.5 0.5 0 0.4 0.7-0.7 4.8-0.6 2.1-2 7.6-3.2 12.3-1.2 4.7-2.3 8.6-2.5 8.6-0.2 0-0.3-0.1-0.3-0.2zM55.1 16.1C53.1 9.6 51.4 4 51.4 3.7c0-1.1 0.5-0.1 1.4 2.7 0.4 1.5 2 6.5 3.6 11.3 3 9.5 3.2 10.2 2.8 10.2-0.1 0-1.9-5.3-4-11.8z" class="style1" fill="#338f76"/></g></svg>