<svg xmlns:dc="http://purl.org/dc/elements/1.1/" xmlns:cc="http://creativecommons.org/ns#" xmlns:rdf="http://www.w3.org/1999/02/22-rdf-syntax-ns#" xmlns:svg="http://www.w3.org/2000/svg" xmlns="http://www.w3.org/2000/svg" version="1.1" id="svg2" height="37" width="107"><style>.style0{fill:	#d44a30;}.style1{fill:	#338f76;}.style2{fill:	#eb9953;}.style3{fill:	#9c9d8c;}.style4{fill:	#5ca379;}.style5{fill:	#6f716e;}</style><title id="title">extJWNL logo</title><defs id="defs4"/><metadata id="metadata"><rdf:RDF><cc:Work rdf:about=""><dc:format>image/svg+xml</dc:format><dc:type rdf:resource="http://purl.org/dc/dcmitype/StillImage"/><dc:title>extJWNL logo</dc:title></cc:Work></rdf:RDF></metadata><path id="e" d="m 7.7 28.2 q -3.7 0 -5.7 -2.1 Q -0 24.1 -0 20.3 q 0 -3.8 2 -6 2 -2.2 5.1 -2.2 1.4 0 2.5 0.4 1.1 0.4 1.9 1.3 0.8 0.9 1.3 2.2 0.4 1.3 0.4 3.1 l 0 1.4 -10.6 0 q 0 2.7 1.3 4.1 1.3 1.4 3.7 1.4 0.9 0 1.7 -0.2 0.8 -0.2 1.5 -0.5 0.7 -0.3 1.2 -0.6 0.5 -0.3 0.8 -0.6 l 0.2 0 0 2.8 q -0.5 0.2 -1.1 0.5 -0.7 0.3 -1.2 0.4 -0.8 0.2 -1.4 0.3 -0.6 0.1 -1.5 0.1 z M 10.7 18.5 Q 10.7 17.4 10.5 16.7 10.3 15.9 9.9 15.4 9.4 14.8 8.7 14.5 8 14.2 7 14.2 q -1 0 -1.8 0.3 -0.7 0.3 -1.3 0.9 -0.6 0.6 -0.9 1.3 -0.3 0.7 -0.4 1.7 l 8.1 0 z" class="style0"/><path id="x" d="m 27.8 27.9 -3.2 0 -3.7 -5.8 -3.8 5.8 -2.9 0 5.3 -7.6 -5.3 -7.8 3.2 0 3.7 5.8 3.8 -5.8 2.9 0 -5.3 7.6 5.3 7.8 z" class="style0"/><path id="t" d="m 34.5 28.2 q -2.1 0 -3.3 -1.2 -1.2 -1.2 -1.2 -3.8 l 0 -8.5 -1.7 0 0 -2.1 1.7 0 0 -4.4 2.6 0 0 4.4 4.8 0 0 2.1 -4.8 0 0 7.3 q 0 1.2 0 1.8 0 0.6 0.3 1.2 0.2 0.5 0.8 0.7 0.5 0.2 1.4 0.2 0.6 0 1.2 -0.2 0.6 -0.2 0.9 -0.3 l 0.2 0 0 2.3 q -0.7 0.2 -1.5 0.3 -0.7 0.1 -1.4 0.1 z" class="style0"/><path id="J" d="m 47.2 22.6 q 0 2.7 -1.6 4.2 -1.6 1.5 -4.4 1.5 -0.7 0 -1.8 -0.1 -1.1 -0.1 -1.8 -0.3 l 0 -2.6 0.2 0 q 0.6 0.2 1.4 0.4 0.8 0.2 1.7 0.2 1.3 0 2 -0.3 0.8 -0.3 1.1 -0.8 0.4 -0.6 0.5 -1.3 0.1 -0.8 0.1 -1.8 l 0 -12 -4.3 0 0 -2.2 7 0 0 15.2 z" class="style1"/><path id="L" d="m 107 27.9 -11.9 0 0 -20.5 2.7 0 0 18.1 9.1 0 0 2.4 z" class="style1"/><path id="wn1" d="m 59.6 36.7 c -0.4 -0.2 -0.9 -0.6 -1.2 -0.9 -0.4 -0.5 -0.4 -0.7 0.3 -1.6 0.4 -0.6 0.8 -1.4 0.8 -1.7 0 -0.7 -2.4 -8.7 -4.9 -16.2 C 54 14.6 52.9 11.1 52.1 8.5 50.7 4.1 50.6 3.8 49.4 3.4 47.7 2.7 47.5 1.9 48.7 0.8 50.4 -0.6 54.2 -0.1 54.5 1.7 54.6 2.2 54.3 2.6 53.7 3 53.2 3.3 52.8 3.9 52.8 4.2 c 0 0.4 2.4 8 5.6 18.1 0.9 2.9 1.1 1.7 1 -5.9 C 59.3 11.5 59.2 9.7 58.9 9.6 57.7 9.2 56.9 8.2 57.2 7.5 c 0.5 -1.6 4.7 -1.9 6 -0.4 0.7 0.8 0.3 1.9 -0.9 2.3 -0.4 0.1 -0.7 0.4 -0.7 0.6 0 0.7 3.9 4.9 4.2 4.6 0.2 -0.2 0.9 -2.4 1.7 -5 l 1.4 -4.8 -1.1 -0.9 c -1.8 -1.5 -0.7 -3.1 2.1 -3.1 2.9 0 4 1.6 2.1 3.1 l -1.1 0.9 3.2 8.8 c 3.9 10.7 4.9 13.6 5.1 13.6 0.1 0 0.1 -3.7 0.1 -8.2 l 0 -8.2 -1 -0.2 C 75.9 9.8 75.2 8.2 77.1 7.2 c 1.4 -0.7 4 -0.5 5 0.5 0.7 0.7 0.7 0.7 0 1.7 -0.6 0.9 -0.7 1.8 -0.8 7.6 -0.1 3.7 0 6.8 0.2 7 0.2 0.2 1.3 -3.6 2.9 -9.6 C 85.8 9 86.9 4.5 86.8 4.3 86.7 4.2 86.2 4 85.8 3.7 84.4 3 84.2 2.2 85.1 1.3 c 1.5 -1.5 6 -0.8 6.1 0.9 0 0.2 -0.5 0.8 -1.1 1.3 -1 0.9 -1.3 1.6 -4.7 14.8 -2 7.7 -3.7 14.2 -3.7 14.4 -0 0.3 0.5 0.8 1 1.1 1.3 0.7 1.3 1.4 0.1 2.4 -1.7 1.3 -5.7 0.4 -5.7 -1.3 0 -0.3 0.5 -0.8 1.1 -1.1 0.6 -0.3 1.1 -0.7 1.1 -0.9 0 -0.3 -11 -12.7 -12.1 -13.6 -0.5 -0.4 -0.6 -0.4 -0.7 0.2 -0.1 0.3 -1 3.3 -2 6.5 -1 3.2 -1.8 6.2 -1.8 6.5 0 0.4 0.5 0.9 1.1 1.3 0.6 0.4 1.1 0.9 1.1 1.3 0 1.4 -3.1 2.3 -5.1 1.5 z m 3.2 -11.5 c 2.6 -8.7 2.4 -7.9 1.7 -8.8 -1.4 -1.7 -2.7 -3.1 -3 -3.1 -0.2 0 -0.3 3.5 -0.3 7.8 0 4.8 0.1 7.7 0.3 7.5 0.2 -0.2 0.7 -1.8 1.3 -3.5 z m 11.2 -6.9 C 72.2 13.2 70.6 8.8 70.5 8.5 70.2 7.6 69.7 8.6 68.5 12.7 l -1.2 4 1.1 1.2 c 4.2 4.8 8.8 9.9 8.9 9.8 0.1 -0.1 -1.4 -4.3 -3.2 -9.4 z" class="style2"/><path id="wn2" d="m 59.6 36.7 c -1.2 -0.5 -1.7 -1.3 -1.2 -2.1 0.2 -0.4 0.6 -0.7 0.9 -0.7 0.7 0 0.7 -2.7 0 -3.5 C 59.1 30.1 58.6 29 58.3 28 58 27.1 56.5 22.3 54.9 17.5 53.4 12.6 51.8 7.6 51.4 6.3 50.7 4.2 50.5 3.8 49.4 3.4 47.7 2.7 47.5 1.9 48.7 0.8 c 1.7 -1.4 5.5 -0.9 5.8 0.8 0.1 0.5 -0.2 1 -0.8 1.4 -0.5 0.3 -0.9 0.8 -0.9 1.1 0 0.5 3.3 11.2 5.9 18.9 l 0.9 2.8 0.1 -7.4 c 0.1 -7.8 0 -9 -0.8 -9 -0.3 0 -0.8 -0.3 -1.3 -0.6 -1.1 -0.9 -0.7 -2.1 1 -2.6 3.5 -1.1 6.5 1.5 3.5 3 -0.5 0.3 -1.1 0.4 -1.2 0.3 -0.1 -0.1 -0.2 -0 -0.2 0.2 0 0.4 3.9 5.1 4.5 5.5 0.2 0.1 1 -2.2 1.9 -5.2 l 1.6 -5.4 -1.1 -0.9 c -1.8 -1.5 -0.7 -3.1 2.1 -3.1 2.9 0 4 1.6 2.1 3.1 l -1.1 0.9 1.8 4.9 c 1 2.7 2.7 7.6 3.9 10.8 1.2 3.2 2.3 6.4 2.6 7.1 0.4 1.1 0.5 0.2 0.5 -7.8 l 0 -9 -1.2 -0.2 C 76 9.9 75.2 8.2 77.1 7.2 c 1.4 -0.7 3.9 -0.5 4.9 0.4 0.9 0.8 0.9 1 -0.1 2 -0.8 0.8 -0.8 1 -0.9 8.9 -0.1 5.9 0 7.9 0.3 7.2 0.4 -0.9 5.6 -20.6 5.6 -21.2 0 -0.2 -0.4 -0.5 -0.9 -0.8 -1.5 -0.8 -1.8 -1.6 -0.9 -2.5 1.5 -1.5 6 -0.8 6.1 0.9 0 0.2 -0.5 0.8 -1.1 1.3 -1 0.8 -1.3 1.6 -4.6 14.3 -1.9 7.4 -3.6 13.7 -3.8 14 -0.6 1 -0.4 1.5 0.7 1.9 1.5 0.6 1.7 1.5 0.5 2.5 -0.8 0.7 -1.3 0.8 -2.7 0.7 -1.7 -0.2 -3.1 -1 -3.1 -1.9 0 -0.6 2.1 -1.9 2.6 -1.6 1 0.6 -1.1 -2 -5.8 -7.2 -6.8 -7.6 -7.2 -8 -7.2 -7.4 -0 0.3 -0.9 3.3 -2 6.9 -1.1 3.5 -2 6.7 -2 7.1 0 0.4 0.5 0.9 1.1 1.3 0.6 0.4 1.1 0.9 1.1 1.3 0 1.4 -3.1 2.3 -5.1 1.5 z m 4.1 -14.5 c 0.6 -2 1.3 -4.1 1.4 -4.5 0.3 -0.7 0.1 -1.1 -1.6 -3.1 -1.1 -1.2 -2.1 -2.2 -2.3 -2.1 -0.2 0.1 -0.3 4.3 -0.3 9.3 l 0 9.1 0.8 -2.5 c 0.5 -1.4 1.3 -4.1 1.9 -6.2 z M 74.3 19.1 C 72.3 13.6 70.6 8.8 70.5 8.5 70.2 7.6 69.7 8.6 68.6 12.4 c -0.6 2 -1.3 3.9 -1.5 4.1 -0.3 0.3 -0 0.8 1 1.9 3 3.4 9.8 10.8 9.8 10.8 0 0 -1.6 -4.6 -3.6 -10.1 z" class="style3"/><path id="wn3" d="m 59.5 35.5 c -0.3 -0.3 -0.3 -0.6 -0 -0.7 0.5 -0.3 0.5 -3.5 -0.1 -5 C 59 29.1 57 22.8 54.7 15.8 51.6 6 50.5 2.9 49.9 2.4 48.8 1.6 49.5 1 51.3 0.9 53.3 0.9 54 1.6 52.8 2.5 l -0.9 0.6 3.1 9.6 c 1.7 5.3 3.3 10.4 3.6 11.3 0.3 0.9 0.7 1.7 0.8 1.7 0.3 0 0.4 -14.2 0.1 -15.9 C 59.5 9.2 59.1 8.7 58.7 8.6 57.7 8.3 57.9 7.5 59.1 7.1 60.2 6.7 61.4 6.9 62.2 7.5 62.6 7.8 62.5 8 61.7 8.6 61.1 9.2 60.9 9.6 61 10.1 c 0.3 0.8 4.6 5.7 4.9 5.4 C 66.2 15.3 69.3 4.8 69.3 4.1 69.3 3.9 69 3.4 68.5 3.1 67.4 2.3 68.1 1.7 70 1.7 c 2 0 2.6 0.6 1.4 1.5 -1 0.8 -1.1 0.6 2.1 9.4 3.3 9.2 4.6 12.5 5.2 14.3 0.3 0.9 0.7 1.7 0.8 1.9 0.2 0.2 0.3 -3.9 0.3 -9.4 0 -9.6 -0 -9.8 -0.7 -9.8 -0.9 0 -2.1 -0.6 -2.1 -1 0 -0.5 1.9 -1 3 -0.7 l 1.1 0.2 -0.1 9.2 c -0.1 5.6 0 9.3 0.2 9.4 0.2 0.1 0.8 -1.5 1.3 -3.6 0.5 -2.1 1.8 -7 2.9 -11 2 -7.6 2.2 -8.8 1.4 -8.8 -0.8 0 -1.3 -0.9 -0.8 -1.3 0.6 -0.6 2.8 -0.5 3.6 0.1 0.6 0.5 0.6 0.5 -0.1 0.9 -0.4 0.2 -0.8 0.7 -0.8 1 -0 0.3 -1.6 6.6 -3.6 14 -2 7.4 -3.6 14 -3.7 14.8 -0.1 1.1 -0 1.5 0.7 2 0.7 0.6 0.8 0.7 0.3 1 -0.7 0.5 -3.3 0.4 -3.8 -0.1 -0.3 -0.3 -0.2 -0.6 0.5 -1.2 l 1 -0.8 -0.7 -1 c -1.2 -1.8 -12.6 -14.3 -12.9 -14 -0.1 0.1 -1.2 3.6 -2.4 7.7 l -2.2 7.4 1 0.8 c 0.8 0.7 0.9 0.9 0.5 1.2 -0.8 0.5 -3.4 0.4 -3.8 -0.1 z m 4 -11.6 2 -6.9 -2 -2.3 c -1.1 -1.3 -2.2 -2.2 -2.3 -2.1 -0.2 0.1 -0.3 4.3 -0.3 9.4 0 5 0.1 9.1 0.3 9 0.2 -0.1 1.2 -3.3 2.3 -7 z M 74.8 19.4 C 70.4 7.2 70.5 7.6 70.2 7.6 c -0.3 0 -3.4 9 -3.2 9.4 0.2 0.6 11 12.3 11.1 12 0.1 -0.2 -1.4 -4.5 -3.3 -9.6 z" class="style4"/><path id="wn4" d="M 59.5 35.5 C 59.2 35.1 59.2 34.9 59.5 34.8 60 34.4 59.9 31.8 59.3 29.6 59.1 28.5 57.2 22.4 55.1 16 53.1 9.6 51.4 4.1 51.4 3.8 c 0 -0.3 -0.5 -0.8 -1.1 -1.1 C 49.7 2.3 49.3 1.9 49.4 1.7 49.5 1.1 51.4 0.7 52.3 0.9 53.6 1.2 53.7 1.8 52.7 2.6 l -0.9 0.8 1.9 5.8 c 1 3.2 2.6 8.2 3.6 11.2 1.1 3.4 1.9 5.4 2.2 5.4 0.4 0 0.5 -1.5 0.5 -7.4 0 -8.2 -0.2 -9.6 -1.1 -9.8 -1 -0.3 -0.8 -1 0.4 -1.4 1.1 -0.4 2.3 -0.2 3.1 0.4 0.4 0.3 0.3 0.5 -0.5 1.1 -0.8 0.6 -0.9 0.9 -0.6 1.5 0.5 1.1 4.4 5.4 4.9 5.4 0.3 0 1.1 -2.3 2.1 -5.7 L 69.8 4.1 68.8 3.3 C 67.5 2.3 68 1.7 70 1.7 c 2.1 0 2.5 0.6 1.2 1.7 l -1 0.8 2.9 8.1 c 1.6 4.4 3.6 10 4.4 12.3 0.8 2.3 1.7 4.3 1.9 4.3 0.3 0.1 0.4 -2.7 0.4 -9.6 0 -9.6 -0 -9.7 -0.7 -9.7 -0.9 0 -2.1 -0.6 -2.1 -1 0 -0.5 1.9 -1 3 -0.7 l 1 0.2 0 9.3 c 0 6.1 0.1 9.4 0.4 9.4 0.3 0.1 6.2 -21.5 6.2 -22.7 -0 -0.2 0.1 -0.4 0.3 -0.4 0.5 0 0.4 0.7 -0.7 5 -4.1 15.3 -5.6 21.6 -5.9 23.4 -0.2 1.9 -0.2 2.1 0.6 2.7 0.7 0.6 0.8 0.7 0.3 1 -0.7 0.5 -3.3 0.4 -3.8 -0.1 -0.3 -0.3 -0.2 -0.6 0.5 -1.2 l 1 -0.8 -0.7 -1 c -0.4 -0.6 -3.4 -4 -6.6 -7.6 -4.7 -5.3 -6.1 -6.5 -6.4 -6.2 -0.2 0.2 -1.4 3.6 -2.6 7.5 l -2.2 7.1 1.1 1 c 1 0.8 1.1 1 0.6 1.3 -0.8 0.5 -3.4 0.4 -3.8 -0.2 z m 2.7 -6 c 2.1 -6.9 3.3 -11 3.3 -11.7 0 -1 -3.7 -5.5 -4.3 -5.2 -0.5 0.3 -0.4 18.6 0.1 18.4 0.2 -0.1 0.6 -0.8 0.9 -1.5 z M 74.5 17.9 C 71.5 9.7 70.5 7.1 70.1 7.1 69.5 7.2 66.8 15.5 66.9 16.6 67.1 17.5 77.8 29.3 78.2 29 78.3 28.9 76.7 23.8 74.5 17.9 Z M 86.9 3.2 C 86.6 3.2 86.2 2.9 85.9 2.7 84.6 1.7 88.2 0.9 89.5 1.9 90.2 2.4 90.2 2.4 89.4 2.8 88.4 3.4 87.7 3.5 86.9 3.2 Z" class="style5"/><path id="wn5" d="m 60 33.7 c -0.1 -0.3 -0.2 -5.9 -0.3 -12.5 -0.1 -10.9 -0 -12 0.5 -12 0.3 -0 0.7 0.4 0.8 0.8 0.1 0.4 1.5 2.2 3.1 4 1.6 1.8 5.7 6.3 9 10 3.4 3.8 6.2 6.6 6.4 6.5 0.2 -0.2 0.3 -4.9 0.4 -10.5 0.1 -8.7 0.2 -10.2 0.6 -10.3 0.5 -0.1 0.5 1.4 0.5 11.9 0 11.1 -0 12 -0.6 12 -0.3 -0 -0.8 -0.3 -1 -0.7 -0.2 -0.4 -3.4 -4.1 -7.1 -8.2 -3.7 -4.1 -7.7 -8.5 -8.8 -9.8 -1.1 -1.3 -2.2 -2.3 -2.4 -2.2 -0.2 0.1 -0.3 4.9 -0.3 10.7 0 6.7 -0.1 10.6 -0.4 10.8 -0.2 0.1 -0.4 -0 -0.6 -0.3 z m 1.4 -1.7 c 0.1 -0.4 0.9 -3.1 1.8 -5.9 0.9 -2.8 1.8 -5.8 2 -6.6 0.2 -0.8 0.5 -1.4 0.7 -1.2 0.3 0.3 -3.9 14.6 -4.4 14.6 -0.2 0 -0.2 -0.4 -0.1 -0.8 z M 78.8 29.4 C 78.7 29.2 76.8 24.1 74.6 18.1 71.5 9.7 70.5 7.1 70.1 7.1 c -0.4 0.1 -1 1.5 -1.8 4.2 -1.2 3.8 -1.8 5.3 -1.8 4.2 0 -0.7 3.3 -11.6 3.5 -11.6 0.1 0 1.5 3.7 3.1 8.2 1.6 4.5 3.6 10.2 4.5 12.6 0.9 2.4 1.5 4.5 1.5 4.7 -0.1 0.2 -0.2 0.2 -0.3 0 z m 2.5 -0.4 c 0 -0.1 1.4 -5.7 3.2 -12.3 1.7 -6.7 3.2 -12.4 3.2 -12.7 0 -0.3 0.2 -0.5 0.4 -0.5 0.5 0 0.4 0.7 -0.7 4.8 -0.6 2.1 -2 7.6 -3.2 12.3 -1.2 4.7 -2.3 8.6 -2.5 8.6 -0.2 0 -0.3 -0.1 -0.3 -0.2 z M 55.1 16.1 C 53.1 9.6 51.4 4 51.4 3.7 c 0 -1.1 0.5 -0.1 1.4 2.7 0.4 1.5 2 6.5 3.6 11.3 3 9.5 3.2 10.2 2.8 10.2 -0.1 0 -1.9 -5.3 -4 -11.8 z" class="style0"/><path id="wn6" d="m 61.3 32 c 0.1 -0.4 0.9 -3.1 1.8 -5.9 0.9 -2.8 1.8 -5.8 2 -6.6 0.2 -0.8 0.5 -1.4 0.7 -1.2 0.3 0.3 -3.9 14.6 -4.4 14.6 -0.2 0 -0.2 -0.4 -0.1 -0.8 z M 78.8 29.4 C 78.7 29.2 76.8 24.1 74.6 18.1 71.5 9.7 70.5 7.1 70.1 7.1 c -0.4 0.1 -1 1.5 -1.8 4.2 -1.2 3.8 -1.8 5.3 -1.8 4.2 0 -0.7 3.3 -11.6 3.5 -11.6 0.1 0 1.5 3.7 3.1 8.2 1.6 4.5 3.6 10.2 4.5 12.6 0.9 2.4 1.5 4.5 1.5 4.7 -0.1 0.2 -0.2 0.2 -0.3 0 z m 2.5 -0.4 c 0 -0.1 1.4 -5.7 3.2 -12.3 1.7 -6.7 3.2 -12.4 3.2 -12.7 0 -0.3 0.2 -0.5 0.4 -0.5 0.5 0 0.4 0.7 -0.7 4.8 -0.6 2.1 -2 7.6 -3.2 12.3 -1.2 4.7 -2.3 8.6 -2.5 8.6 -0.2 0 -0.3 -0.1 -0.3 -0.2 z M 55.1 16.1 C 53.1 9.6 51.4 4 51.4 3.7 c 0 -1.1 0.5 -0.1 1.4 2.7 0.4 1.5 2 6.5 3.6 11.3 3 9.5 3.2 10.2 2.8 10.2 -0.1 0 -1.9 -5.3 -4 -11.8 z" class="style1"/></svg>